<?xml version="1.0" encoding="UTF-8"?><svg id="Calque_1" xmlns="http://www.w3.org/2000/svg" viewBox="0 0 426.39 120.99"><defs><style>.cls-1{fill:#fcf9f0;}.cls-2{fill:#7eba28;}.cls-3{fill:#134735;}.cls-4{fill:#1e4f3e;}.cls-5{fill:#7fba28;}</style></defs><path class="cls-1" d="m98.56,97.42c-.17,1.13-.42,2.24-.79,3.32-.26.75-.76,1.37-1.11,2.08-.41.83-.6,1.71-.21,2.53.49,1.02.55,2.09.62,3.16.03.47.19.9.26,1.35.06.39.28.44.63.37.86-.16,1.28-.69,1.12-1.55-.27-1.48-.44-2.96-.43-4.47,0-.56.14-1.02.52-1.44.48-.52.89-1.09,1.34-1.64.92-1.13,1.64-2.36,2.05-3.77.1-.34.25-.66.38-.99.08,0,.17,0,.25,0,0,.59.03,1.17.18,1.75.18.75.09,1.51-.06,2.27-.24,1.24-.45,2.48-1.08,3.61-.45.81-.24,1.66.08,2.47.52,1.3.85,2.67,1.55,3.99h-29.18c.05-.35.27-.59.44-.85,4.9-7.92,9.82-15.83,14.61-23.83,1.76-2.94,3.1-6.06,4.09-9.34.31-1.01.71-2.03,1.11-3.02.55-1.4.82-2.89,1.32-4.31.28-.79.47-1.61.73-2.39.33-1.01.66-2.11,1.55-2.89.52-.46.92-1.07,1.35-1.63,1.03-1.34,2.46-1.76,4.05-1.58.85.09,1.63.03,2.42-.22,1.32-.4,2.56-1.07,3.91-1.35,1.75-.37,3.5-.76,5.3-.82,1.41-.05,2.43.5,2.99,1.85,1.97,4.78,4.51,9.32,6.15,14.23,1.1,3.28,2.37,6.48,3.89,9.57,4.27,8.65,8.91,17.11,13.61,25.53.18.33.35.66.53,1-.34.16-.63.09-.92.09-7.79,0-15.59,0-23.38,0-.99,0-1.02,0-.85-.96.32-1.83.34-3.69.63-5.52.09-.59.25-1.15.46-1.69.52-1.31,1.12-2.6,1.53-3.94.75-2.41.99-4.88.41-7.39-.11-.48-.28-.96-.16-1.48.07-.29.15-.44.52-.4,1.37.16,1.9-.45,1.71-1.84-.07-.51-.11-1.02.21-1.51.2-.3.13-.67-.03-1.02-.18-.37-.4-.7-.5-1.12-.1-.44-.53-.52-.85-.4-.5.19-.92.05-1.36-.1-1.01-.35-1.83-.01-2.57.68-.65.61-.88.65-1.62.16-.32-.21-.54-.14-.8.01-.27.16-.3.42-.23.7.2.76.64,1.31,1.38,1.6.04.12.15.23.05.37-.84.54-1.68,1.06-2.5,1.63-.78.54-1.51.58-2.39.18-1.31-.6-2.62-1.21-3.76-2.1-1.82-1.42-3.87-1.55-6.03-1.13-1.35.26-2.21,1.05-2.7,2.36-.85,2.27-1.37,4.61-1.71,7-.25,1.78-1.07,3.27-2.08,4.7-.48.68-1.11,1.02-1.95.98-.47-.03-.95.03-1.4-.07-.43-.1-.85-.28-1.15-.69-.45-.61-1.01-1.1-1.76-1.36-.85-.29-1.31.04-1.24.92.07.9.37,1.65,1.21,2.12.33.19.61.46.94.65,1.72,1,3.44,1.05,5.15-.04.42-.27.83-.56,1.23-.86.73-.54,1.35-1.17,1.59-2.1.12-.48.33-.94.5-1.41.08,0,.16-.02.24-.03Zm23.77-24.19v.04s0-.03,0-.03c-.1-.14-.19-.28-.29-.42-.19-.44-.43-.83-.76-1.18l-.04-.06c-.75-1.26-1.45-2.55-1.85-3.97-.38-1.32-.75-2.65-1.11-3.98-.18-.68-.38-1.36-.75-1.97-.43-.72-.98-1.31-1.77-1.66-.15-.07-.31-.21-.48-.05-.16.16-.2.34-.1.56.17.38.39.73.65,1.04,1.08,1.31,1.79,2.81,2.25,4.44.12.42.27.84.42,1.25.59,1.64,1.35,3.18,2.49,4.52,0,.05.03.08.07.09.22.42.5.79.89,1.06.05.19.16.32.38.32Zm-25.28-3.05c1.54-.39,2.53-1.4,3.2-2.8.2-.42.46-.82.7-1.22.69-1.13,1.41-2.24,2.63-2.9.3-.16.56-.42.53-.85-.89-.05-1.61.23-2.24.83-.81.79-1.47,1.68-1.93,2.71-.4.9-.93,1.7-1.56,2.44-.44.51-.89,1.01-1.34,1.52-.12.03-.17.12-.15.22.01.09.08.11.16.05Zm14.33-5.07c.41,1.14.82,2.27,1.23,3.41.06.39.22.74.5,1.18.05-.51-.11-.84-.23-1.19-.16-.68-.31-1.37-.47-2.05-.26-1.08-.35-2.19-.51-3.29-.11-.76-.52-1.23-1.27-1.37-.49-.1-.99-.11-1.48-.02-.41.07-.66.36-.8.73-.15.38.04.68.29.94.25.26.56.49.92.46.68-.05,1,.37,1.28.87.04.34.2.48.54.33Z"/><path class="cls-1" d="m41.19,82.53c0,7.06,0,14.12,0,21.18,0,.53,0,1.06-.04,1.59-.16,2.44-1.38,4.06-4.19,4.31-1.71.15-3.4.05-5.06-.46-.91-.28-1.83-.57-2.77-.7-1.23-.17-2.46-.06-3.64.4-1.48.57-2.95,1.18-4.51,1.49-2.85.57-5.67.28-8.47-.42-.79-.2-1.64-.38-2.33-.74-1.18-.61-2.33-1.32-3.38-2.18-2.72-2.23-4.36-5.16-5.55-8.39-.86-2.33-1.07-4.77-1.2-7.22-.12-2.32,0-4.64.26-6.96.11-.95.45-1.85.48-2.83.01-.41.34-.9.51-1.36.64-1.81,1.5-3.51,2.58-5.1,2.25-3.33,5.37-5.35,9.25-6.3,3.58-.88,7.11-.62,10.64.26,1.06.26,2.12.5,3.22.46,1.36-.04,2.09-.56,2.55-1.85.4-1.12.57-2.28.65-3.45.09-1.38.12-2.76.2-4.14.07-1.18.28-2.33.8-3.41.5-1.06,1.34-1.62,2.5-1.65,1.29-.03,2.59-.04,3.88,0,1.36.05,2.29.75,2.87,1.98.54,1.15.72,2.35.73,3.59.02,4.12.02,8.24.03,12.35,0,3.18,0,6.35,0,9.53Zm-22.28,15.12c4.64,0,8.33-3.72,8.31-8.36-.02-4.57-3.75-8.28-8.33-8.27-4.58,0-8.3,3.72-8.32,8.29-.02,4.63,3.69,8.35,8.33,8.34Z"/><path class="cls-1" d="m306.68,119c-1.12-.3-2.06-.94-3-1.58-.22-.15-.43-.3-.65-.45-.02-.06-.06-.1-.12-.11-.69-.65-1.33-1.34-1.82-2.16-.04-.05-.08-.09-.13-.14-.35-.99-.75-1.96-.76-3.03,0-1.03.43-1.81,1.32-2.33.28-.16.57-.32.87-.41,1.81-.54,3.65-.6,5.48-.16.84.2,1.49.72,2.08,1.37,1.28,1.41,2.65,2.74,4.25,3.8.86.57,1.9.75,2.93.86,1.68.17,3.34.13,4.96-.43,3.07-1.05,5.52-3.92,4.71-8.21-.13-.68-.34-1.46-.96-1.97-.64-.53-1.41-.71-2.21-.77-1.33-.09-2.63.22-3.93.44-1.93.34-3.87.63-5.84.63-5.89.03-10.05-2.75-12.77-7.86-.99-1.87-1.6-3.88-1.93-5.96-.84-5.31-.61-10.53,1.58-15.54,1.3-2.98,3.31-5.37,6.13-7,3.9-2.25,8.06-2.62,12.39-1.57,1.71.41,3.39.91,5.11,1.26.35.07.7.11,1.05.09.18.09.35.09.53,0,1.31.05,2.54-.43,3.82-.6,1.55-.2,3.1-.27,4.64.06,1.42.31,2.34,1.14,2.72,2.57.29,1.09.43,2.19.45,3.31.03,2.26.02,4.53.02,6.79,0,8.61,0,17.23,0,25.84,0,2.13-.21,4.23-.86,6.26-.97,3.02-2.83,5.22-5.72,6.66-2.42,1.21-4.97,1.76-7.61,2.05-3.28.36-6.57.36-9.86.05-2.24-.21-4.4-.7-6.48-1.55-.07-.21-.23-.24-.42-.21Zm11.02-25.06c4.59.02,8.32-3.65,8.36-8.23.04-4.59-3.63-8.36-8.19-8.4-4.65-.04-8.43,3.64-8.46,8.23-.03,4.62,3.67,8.38,8.29,8.4Z"/><path class="cls-1" d="m343.12,70.82c.29-.14.26-.43.34-.68.44-1.36,1.35-2.24,2.72-2.61,2.55-.69,5.07-.39,7.57.27,1.64.44,3.28.62,4.96.34,1-.17,1.89-.63,2.84-.93,3.52-1.1,7.07-1.44,10.66-.5,5.48,1.45,7.35,4.85,7.93,9.2.17,1.29.2,2.58.2,3.87,0,7.91,0,15.82,0,23.73,0,.44,0,.89-.07,1.32-.37,2.38-2.27,3.3-4.34,3.5-.99.1-2,.08-3,0-1.25-.09-2.4-.51-3.27-1.47-.47-.51-.69-1.14-.72-1.86-.14-4,.04-8,.02-11.99-.01-1.53-.07-3.07-.46-4.55-.3-1.14-.6-2.3-1.25-3.31-.57-.9-1.29-1.7-2.25-2.12-3.11-1.36-7.17-.98-9,3.26-.9,2.09-1.16,4.31-1.21,6.54-.07,3.62-.1,7.23-.08,10.85.01,2.86-1.61,4.23-3.92,4.57-1.43.21-2.87.2-4.3-.03-.71-.12-1.34-.47-1.9-.86-.43-.3-.69-.86-.9-1.37-.23-.57-.38-1.17-.41-1.8-.02-.44-.03-.88-.03-1.32,0-10.18,0-20.35-.01-30.53,0-.47.2-.98-.11-1.43.01-.03.01-.07,0-.1Z"/><path class="cls-1" d="m171,69.55c2.14-1.44,4.55-1.2,6.9-.98,1.95.18,3.12,1.6,3.34,3.64.06.61.08,1.23.08,1.85,0,10.11,0,20.22,0,30.34,0,.73,0,1.46-.24,2.17-.28.88-.82,1.53-1.61,2-.75.44-1.56.67-2.4.84-1.24.24-2.51-.09-3.75.19-.76-.43-1.64-.37-2.46-.59-1.81-.49-3.64-.6-5.5-.28-.85.15-1.64.47-2.43.77-4.16,1.56-8.33,1.59-12.49.06-2.15-.79-3.87-2.48-4.97-4.68-.12-.25-.11-.59-.45-.7-.03-.08-.06-.17-.1-.25-.47-1.58-.69-3.21-.7-4.86-.02-8.7-.01-17.4,0-26.1,0-.61-.03-1.22.22-1.81.66-1.58,1.86-2.5,3.55-2.64,1.22-.1,2.47-.08,3.7,0,2.47.16,4.01,1.8,3.97,4.28-.06,3.85-.19,7.69-.3,11.54-.06,2,.05,3.99.48,5.96.1.43.22.85.36,1.27.86,2.48,2.52,3.69,5.14,3.79,1.4.05,2.76-.09,4.01-.78.47-.26,1.01-.48,1.25-1.03.05-.05.11-.1.16-.15.66-.49,1.17-1.08,1.26-1.94.04-.06.08-.12.13-.18.34-.12.32-.46.42-.71.72-1.92.9-3.93.95-5.96.1-3.69.21-7.38.3-11.07.03-1.36.22-2.67,1.03-3.81.05-.05.1-.1.16-.16Z"/><path class="cls-1" d="m411.56,89.15c-2.88,0-5.76,0-8.64,0-.71,0-1.41.06-2.1.19-3.39.64-3.95,3.28-3.22,5.51.25.77.67,1.44,1.15,2.07,3.23,4.2,8.43,4.6,12.14,2.38,1.52-.91,2.84-2.09,4.24-3.16.56-.43,1.14-.81,1.85-.97,2.15-.48,3.91.34,5.51,1.66.2.17.39.36.56.56.76.88.96,1.86.47,2.94-.37.81-.83,1.55-1.41,2.23-1.41,1.65-3.14,2.91-5.06,3.86-3.66,1.81-7.57,2.58-11.65,2.51-3.39-.06-6.65-.64-9.77-2-.61-.26-1.17-.59-1.73-.92-1.33-.8-2.63-1.67-3.71-2.78-.93-.97-1.73-2.07-2.41-3.23-.33-.57-.82-1.04-1.05-1.68-.79-2.15-1.54-4.3-1.78-6.59-.37-3.53-.26-7.04.49-10.52.94-4.33,3.23-8.17,5.8-10.51,2.45-2.21,5.29-3.62,8.48-4.37,4.02-.95,8.06-1.01,12.04.06,5.24,1.4,9.14,4.48,11.52,9.45,1.28,2.66,2.15,5.39,2.28,8.34.03.76,0,1.52-.19,2.28-.28,1.16-.99,1.91-2.12,2.27-.85.27-1.72.41-2.6.41-3.03,0-6.06,0-9.08,0h0Zm-5.9-8.08c2.2,0,4.4,0,6.61,0,.77,0,.78-.02.69-.8-.01-.12-.04-.23-.06-.35-.74-4.02-4.17-6.56-8.24-6.12-3.27.36-6.13,3.34-6.33,6.59-.04.67-.04.68.63.68,2.23,0,4.46,0,6.69,0Z"/><path class="cls-1" d="m252.59,90.37c-2.82,0-5.65,0-8.47,0-.68,0-1.35.06-2.02.16-3.25.48-4.18,3.14-3.34,5.55.54,1.55,1.58,2.73,2.82,3.76,3.16,2.63,7.51,2.39,10.17.83.91-.54,1.79-1.12,2.62-1.79.66-.54,1.33-1.06,2-1.6,1.32-1.06,2.81-1.31,4.4-.84,1.31.39,2.47,1.08,3.38,2.12.8.91,1.01,1.89.49,3.01-.57,1.25-1.39,2.32-2.39,3.24-2.55,2.35-5.6,3.78-8.92,4.58-4.57,1.11-9.15,1.03-13.69-.22-2.68-.74-5.05-2.07-7.23-3.81-1.49-1.2-2.55-2.7-3.55-4.27-.35-.56-.84-1.05-1.04-1.69-.37-1.2-.89-2.35-1.19-3.58-.77-3.12-.85-6.28-.64-9.46.11-1.59.43-3.14.68-4.7.11-.68.46-1.36.71-2.04,1.65-4.43,4.37-7.95,8.56-10.26,1.81-.99,3.74-1.61,5.75-2.02,3.5-.7,7.02-.73,10.5.07,4.25.98,7.89,3.03,10.44,6.64,2.39,3.39,3.91,7.15,4.06,11.36.03.88-.02,1.75-.31,2.61-.31.9-.91,1.49-1.79,1.81-.95.35-1.94.49-2.94.49-3.03.02-6.06,0-9.09,0h0Zm1.56-8.27c.08-.38.02-.76-.05-1.14-.68-3.59-3.9-6.16-7.52-6.01-3.66.15-6.63,2.93-7.03,6.58-.08.71-.06.74.67.74,4.38,0,8.76,0,13.14,0,.2,0,.41-.02.61-.03.12.03.19,0,.17-.14Z"/><path class="cls-2" d="m252.46,29.91c0-3.71,0-7.41,0-11.12,0-.56.01-1.12.06-1.67.12-1.48.92-2.45,2.37-2.81,1.52-.38,3.03-.23,4.54.1.63.14,1.26.28,1.89.42,1.67.37,3.27.04,4.86-.45,1.4-.43,2.79-.88,4.27-1.03,2.17-.21,4.21.18,6.15,1.15.76.38,1.52.76,2.28,1.15,1.57.83,3.14.79,4.73.07,1.31-.6,2.58-1.27,3.96-1.71,3.06-.97,6.14-.99,9.2-.05,2.6.8,4.17,2.61,4.86,5.24.35,1.32.47,2.66.47,4.01,0,6.3,0,12.59,0,18.89,0,.47-.04.94-.11,1.41-.18,1.26-1.02,2.13-2.26,2.4-1.08.24-2.16.26-3.23,0-1.12-.28-1.92-.93-2.3-2.05-.03-.1-.13-.18-.13-.31.1-3.25-.07-6.51-.07-9.76,0-1.53-.19-3.05-.67-4.52-.13-.39-.27-.78-.44-1.15-.93-1.98-2.39-3.25-4.66-3.4-2.52-.17-4.47.8-5.8,2.95-.64,1.04-.93,2.21-1.12,3.41-.32,2.05-.16,4.11-.15,6.17,0,1.76.08,3.53.08,5.29,0,1.7-.47,3.13-2.94,3.49-.79.11-1.59.14-2.37-.07-.35-.09-.7-.07-1.06-.28-1.1-.67-1.56-1.63-1.57-2.86-.03-3.12-.09-6.23-.11-9.35-.01-1.48-.13-2.93-.52-4.36-.37-1.36-1.08-2.52-2.16-3.42-.79-.66-1.76-.95-2.76-1.07-.94-.11-1.88-.06-2.8.19-1.5.41-2.6,1.32-3.36,2.67-.86,1.55-1.25,3.24-1.27,4.99-.03,2.79.02,5.59.04,8.38,0,.82.04,1.65-.02,2.47-.1,1.4-.97,2.32-2.33,2.61-1.02.22-2.04.25-3.06,0-1.47-.38-2.18-1.13-2.41-2.75-.07-.49-.08-1-.08-1.5,0-3.91,0-7.82,0-11.74Z"/><path class="cls-2" d="m.01,24.14c0-5.91,0-11.83,0-17.74,0-.53,0-1.05.12-1.58.34-1.36,1.25-2.17,2.65-2.32.29-.03.59-.02.88-.02,6.53,0,13.06,0,19.59,0,2.95,0,5.8.51,8.42,1.92,4.01,2.15,6.24,5.51,6.66,10.05.21,2.31.02,4.59-.62,6.81-1.2,4.13-3.94,6.84-7.91,8.38-1.99.77-4.06,1.18-6.17,1.43-2.19.26-4.4.33-6.6.33-1.24,0-2.47.08-3.68.35-.11.03-.23.04-.35.07-2.01.55-2.95,1.68-3.1,3.77-.15,2.09-.07,4.18-.09,6.26,0,.35,0,.71-.03,1.06-.17,1.7-1.21,2.88-2.91,3.17-1.65.28-3.29.12-4.88-.38-1.33-.42-1.82-1.49-1.96-2.77-.04-.38-.03-.76-.03-1.15,0-5.88,0-11.77,0-17.65Zm25.96-7.43c.1-3-2.22-6.68-6.62-6.73-4.34-.06-6.78,3.47-6.81,6.65-.03,3.2,2.37,6.75,6.68,6.78,4.41.03,6.83-3.62,6.75-6.69Z"/><path class="cls-2" d="m178.85,2.33c.96.06,2.1-.1,3.24.15,1.25.27,2.22.89,2.86,2.01.28.49.5,1,.7,1.52,4.67,12.09,9.34,24.18,14.01,36.26.15.38.3.76.36,1.18.14.92-.17,1.6-.98,2.06-.6.34-1.24.54-1.93.55-1.21.01-2.41.01-3.62,0-1.03,0-1.86-.47-2.56-1.21-.65-.69-1.16-1.48-1.64-2.29-.3-.51-.6-1.01-.93-1.49-.76-1.11-1.86-1.67-3.16-1.89-1.14-.19-2.29-.17-3.43-.17-2.56,0-5.12.04-7.68-.01-2.14-.05-3.74.83-4.91,2.57-.28.41-.55.83-.83,1.25-.28.41-.58.82-.85,1.23-.97,1.51-2.38,2.1-4.14,2.03-.94-.04-1.88-.02-2.82,0-.45,0-.89-.06-1.3-.22-.77-.31-1.23-.86-1.3-1.72-.07-.9.13-1.75.44-2.58,1.45-3.82,2.9-7.64,4.35-11.45,3-7.91,6-15.82,9-23.74.28-.74.59-1.47,1.05-2.13.88-1.23,2.05-1.89,3.58-1.89.76,0,1.53,0,2.48,0Zm-.25,27.93c1.7,0,3.41,0,5.11,0,.82,0,.85-.01.75-.85-.23-1.98-.95-3.8-1.93-5.53-.45-.79-.99-1.52-1.66-2.16-1.65-1.56-3.35-1.52-4.93.13-.47.49-.86,1.04-1.2,1.62-1.09,1.88-1.76,3.89-2.02,6.05-.08.7-.07.72.69.73,1.73,0,3.46,0,5.2,0Z"/><path class="cls-1" d="m217.21,93.21c-1.27,3.54-2.54,7.07-3.79,10.61-.26.72-.56,1.42-.92,2.09-.77,1.42-1.83,2.55-3.35,3.18-.06.04-.12.07-.17.11-1.82.49-3.68.2-5.53.3-1.11.06-2.09-.3-3.07-.76-1.49-.7-2.4-1.9-3.03-3.36-.28-.65-.49-1.32-.73-1.98-.38-1.06-.69-2.15-1.13-3.19-.61-1.41-1.06-2.87-1.57-4.3-.59-1.66-1.19-3.33-1.72-5.01-.37-1.19-.76-2.37-1.25-3.52-.55-1.3-.87-2.68-1.45-3.98-.34-.74-.46-1.63-.8-2.4-.51-1.19-.87-2.44-1.32-3.65-.45-1.22-.85-2.48-1.22-3.75-.42-1.45-.28-2.84.08-4.24.17-.67.82-.96,1.4-1.22.59-.27,1.24-.35,1.89-.35,1.03,0,2.06.02,3.09,0,3.37-.07,4.99,1.5,5.89,4.46.54,1.76.95,3.57,1.42,5.35.64,2.44,1.3,4.87,1.91,7.31.3,1.19.63,2.37,1.11,3.5.18.43.37.87.66,1.24.71.94,1.9,1.06,2.78.29.56-.49.97-1.1,1.25-1.79.58-1.45.89-2.97,1.2-4.49.2-.04.38-.1.16-.34,0-.12.01-.24.02-.37.27-.05.29-.24.25-.46.11-.94.45-1.84.65-2.76.06-.28.14-.55.16-.84.2-.04.38-.1.16-.34,0-.12.01-.24.02-.37.27-.05.29-.24.25-.46.45-2.12.97-4.22,1.76-6.25.19-.07.29-.17.09-.34-.09-.23.1-.37.18-.55.04-.05.08-.09.12-.14.16-.24.32-.49.48-.73.82-1.25,2.03-1.8,3.48-1.96,1.44-.15,2.87-.17,4.31-.01,2.67.28,3.98,1.97,3.51,4.61-.06.32-.12.63-.18.95-.19.1-.37.2-.28.46-.01.42-.18.79-.32,1.17-2.07,5.79-4.13,11.58-6.2,17.37-.05.13-.05.29-.08.43-.21.09-.37.19-.19.45Z"/><path class="cls-2" d="m72.95,29.57c0,2.82-.02,5.65,0,8.47.02,2.18.1,4.35.15,6.53,0,.15.02.29.01.44-.03.69-.24,1-.92,1.08-1.7.19-3.4.23-5.1-.03-.5-.08-.97-.31-1.34-.64-.96-.87-2.08-.85-3.24-.64-.9.16-1.73.55-2.58.88-1.17.47-2.35.93-3.61,1.14-2.65.45-5.2.03-7.73-.78-1.11-.35-2.01-1.02-2.94-1.66-2.09-1.42-3.29-3.52-4.37-5.72-.79-1.63-1.14-3.37-1.34-5.14-.38-3.26-.3-6.51.46-9.73.26-1.11.58-2.24,1.1-3.23,2.06-3.93,5.08-6.68,9.63-7.48,2.76-.49,5.44-.21,8.12.47,1.07.27,2.15.33,3.24.25.6-.04,1.17-.12,1.27-.92.04-.35.36-.6.67-.78.68-.38,1.39-.63,2.18-.62.71,0,1.41.04,2.12-.01.7-.05,1.25.18,1.77.61.52.43,1.04.87,1.6,1.24.39.26.53.56.53,1.02.02,2.53.06,5.06.09,7.59.04,2.56.08,5.12.12,7.67.03,0,.06,0,.09,0Zm-17.24,6.47c3.7,0,6.66-2.97,6.68-6.67.02-3.74-2.97-6.76-6.69-6.76-3.7,0-6.76,3.04-6.75,6.72.01,3.71,3.03,6.71,6.76,6.7Z"/><path class="cls-2" d="m334.35,46.19c-.65.12-1.35-.13-2.05.02-.13.03-.21-.02-.32-.08-.35-.21-.76-.34-1.06-.61-1.33-1.19-2.81-.98-4.31-.5-.67.22-1.33.47-1.97.75-3.42,1.52-6.9,1.52-10.41.42-2.52-.79-4.55-2.3-6.11-4.42-1.83-2.5-2.86-5.31-3.16-8.39-.3-3.09-.26-6.16.37-9.21.27-1.33.74-2.6,1.28-3.82.4-.89,1.04-1.68,1.61-2.49,1.94-2.74,4.69-4.15,7.9-4.8,2.75-.55,5.44-.23,8.11.45,1.1.28,2.2.35,3.32.25.61-.05,1.18-.17,1.21-.96.02-.3.24-.45.46-.59.7-.46,1.46-.75,2.31-.76.65,0,1.3.05,1.94-.01.89-.09,1.6.2,2.25.78.44.39.9.77,1.39,1.08.4.25.53.55.53,1.01,0,1.62,0,3.23.04,4.85.13,4.35.07,8.7.18,13.05.09,3.53.09,7.05.14,10.58,0,.62.09,1.23.13,1.85.07,1.04-.24,1.38-1.27,1.49-.29.03-.59.06-.88.07-.53.01-1.06,0-1.64,0Zm-14.14-10.15c3.75,0,6.72-2.97,6.72-6.71,0-3.73-3-6.73-6.73-6.72-3.66.01-6.7,3.04-6.71,6.68,0,3.71,3.01,6.75,6.72,6.75Z"/><path class="cls-2" d="m202.95,29.4c0-4.18,0-8.35,0-12.53,0-.56.07-1.1.18-1.66.26-1.22,1.1-1.79,2.19-2.09,1.41-.38,2.86-.35,4.29-.13,1.07.16,2.12.45,3.19.65,1.36.26,2.69.1,3.98-.38,1.69-.62,3.4-1.1,5.21-1.18,1.77-.07,3.53.07,5.21.66,2.97,1.04,4.78,3.09,5.38,6.2.21,1.1.32,2.21.32,3.33,0,6.62,0,13.23,0,19.85,0,.12,0,.24,0,.35-.01,2.14-1.15,3.3-3.22,3.58-1.02.14-2.06.11-3.08.01-1.55-.14-2.58-1.14-2.88-2.65-.1-.5-.1-.99-.1-1.49.03-2.41.08-4.82.1-7.23.01-1.68-.07-3.35-.47-4.99-.15-.6-.35-1.18-.62-1.74-.91-1.88-2.44-2.83-4.5-2.85-2.09-.03-3.68.86-4.66,2.75-.79,1.52-1.08,3.16-1.15,4.84-.08,2.11-.06,4.23-.09,6.35-.02,1.15-.08,2.29-.05,3.44.05,2.28-1.39,3.32-3.25,3.56-.98.12-2,.09-2.99.02-1.67-.12-2.76-1.3-2.96-3.08-.05-.44-.04-.88-.04-1.32,0-4.09,0-8.17,0-12.26Z"/><path class="cls-5" d="m391.66,30.57c-2.29,0-4.59,0-6.88,0-.8,0-1.58.08-2.36.27-1.89.46-2.9,1.96-2.31,4.13.51,1.86,1.83,3.14,3.48,4.03,2.29,1.23,4.63,1.14,6.93-.02,1-.5,1.88-1.2,2.74-1.91.25-.21.5-.41.76-.61,2.04-1.59,4.21-1.5,6.14.25.22.2.43.41.61.63.54.67.7,1.4.33,2.22-.46,1.04-1.13,1.92-1.96,2.68-2.38,2.2-5.25,3.4-8.39,3.98-2.89.53-5.78.48-8.67-.12-2.35-.49-4.87-1.64-6.69-3.1-2.19-1.76-3.64-4.01-4.6-6.61-.16-.43-.41-.84-.48-1.29-.38-2.32-.69-4.64-.5-7.01.15-1.91.38-3.8.99-5.63.67-2,1.62-3.84,2.97-5.46,2.01-2.42,4.59-3.93,7.62-4.72,3.63-.94,7.28-.99,10.87.12,4.69,1.44,7.71,4.65,9.42,9.19.63,1.69,1.04,3.43,1.07,5.24,0,.32,0,.65-.04.97-.18,1.52-.85,2.23-2.34,2.58-.64.15-1.28.18-1.93.18-2.26,0-4.53,0-6.79,0Zm-4.06-6.22c1.76,0,3.53,0,5.29,0,.66,0,.71-.08.63-.71-.46-3.45-3.66-5.75-7.08-5.09-2.37.45-4.35,2.54-4.68,4.93-.11.81-.07.86.72.86,1.71,0,3.41,0,5.12,0Z"/><path class="cls-1" d="m271.12,88.21c0-4.97,0-9.94,0-14.91,0-.71.06-1.41.18-2.11.44-2.52,1.78-3.81,4.37-4.08,2.66-.27,5.27,0,7.79.97,1.8.69,3.61.93,5.49.26,1.05-.37,2.14-.61,3.28-.54,2.04.13,3.22,1.16,3.62,3.2.03.14.07.29.08.43.1,1.3.06,2.58-.3,3.85-.31,1.09-.92,1.96-1.9,2.55-.92.56-1.9.98-2.95,1.27-1.21.33-2.37.84-3.4,1.58-2.24,1.61-3.17,3.85-3.17,6.55,0,5.35,0,10.71,0,16.06,0,1.03-.05,2.05-.38,3.05-.62,1.9-1.94,2.99-3.94,3.12-1.56.1-3.12.07-4.67,0-1.49-.05-2.54-.91-3.31-2.05-.39-.57-.46-1.38-.6-2.1-.13-.72-.19-1.45-.19-2.19.01-4.97,0-9.94,0-14.91Z"/><path class="cls-5" d="m115.32,11.45c3.39-.02,6.55.86,9.56,2.38,1.14.57,2.14,1.33,3.01,2.28.28.31.53.63.73.99.64,1.16.51,2.26-.37,3.26-1.45,1.64-3.31,2.01-5.38,1.68-.74-.12-1.3-.61-1.92-.96-.56-.32-1.11-.66-1.66-1-2.81-1.7-6.88-.87-8.92,2.09-.93,1.35-1.55,2.84-1.77,4.47-.29,2.2-.27,4.41.33,6.56.85,3.02,2.69,5.15,5.83,5.88,2.03.47,4.02.25,5.82-.91.72-.46,1.4-.97,2.11-1.44,1.59-1.04,4.01-.86,5.44.39.99.86,1.27,2.05.73,3.27-.44,1.02-1.15,1.84-1.99,2.55-2.56,2.16-5.57,3.36-8.85,3.81-3.33.46-6.63.14-9.82-.98-3.37-1.18-5.98-3.31-7.85-6.36-1.34-2.19-2.03-4.59-2.32-7.1-.37-3.18-.22-6.34.8-9.41.71-2.15,1.78-4.09,3.26-5.81,2.67-3.09,6.09-4.77,10.07-5.41,1.05-.17,2.1-.24,3.16-.22Z"/><path class="cls-2" d="m350.91,23.41c0,6,0,12,0,18,0,.15,0,.29,0,.44.14,2.87-1.66,4.1-4.09,4.24-1.33.08-2.66.03-3.92-.4-.78-.26-1.36-.86-1.75-1.62-.33-.64-.49-1.32-.51-2.03-.01-.32-.02-.65-.02-.97,0-12.09,0-24.17,0-36.26,0-.99.14-1.93.7-2.77.7-1.05,1.69-1.63,2.94-1.68.94-.04,1.88-.04,2.82,0,2.14.08,3.5,1.33,3.76,3.47.06.49.06,1,.06,1.5,0,6.03,0,12.06,0,18.08Z"/><path class="cls-2" d="m406.29,28.87c0-4,0-8,0-12,0-.62.05-1.23.17-1.84.39-1.99,1.51-3,3.54-3.2,2.11-.2,4.2-.05,6.16.74,1.71.69,3.35.69,5.06.12.9-.3,1.83-.41,2.78-.2,1.14.26,1.88.93,2.17,2.06.37,1.46.27,2.92-.25,4.33-.41,1.1-1.31,1.7-2.34,2.12-.65.27-1.33.46-1.99.7-1.35.48-2.57,1.16-3.46,2.32-.89,1.17-1.26,2.5-1.26,3.95,0,4.35,0,8.7,0,13.06,0,.68-.04,1.35-.19,2.01-.41,1.87-1.69,2.95-3.61,3-1.06.02-2.12.03-3.18,0-1.5-.04-2.56-.75-3.12-2.17-.37-.94-.49-1.93-.48-2.94,0-4.03,0-8.06,0-12.09Z"/><path class="cls-2" d="m75.57,28.91c0-3.91,0-7.82,0-11.74,0-.65.04-1.29.14-1.93.31-2.12,1.48-3.22,3.62-3.42,2.2-.2,4.36.03,6.41.84,1.51.6,2.96.58,4.47.09.98-.32,1.99-.5,3.04-.27,1.2.26,1.92.98,2.21,2.14.34,1.38.24,2.75-.19,4.09-.38,1.18-1.31,1.85-2.4,2.3-.62.26-1.27.46-1.91.68-.76.25-1.48.58-2.14,1.03-1.81,1.25-2.68,3-2.68,5.18,0,4.38,0,8.77,0,13.15,0,.65-.04,1.29-.17,1.93-.41,1.98-1.7,3.06-3.71,3.09-1.03.02-2.06,0-3.09,0-1.49,0-2.57-.8-3.14-2.04-.39-.87-.47-1.93-.46-2.94.02-4.06,0-8.12,0-12.18Z"/><path class="cls-2" d="m366.04,29.4c0,3.94,0,7.88,0,11.82,0,.74-.06,1.46-.28,2.17-.44,1.45-1.53,2.32-2.86,2.61-1.9.41-3.87.39-5.71-.5-.34-.16-.55-.4-.74-.69-.68-1.01-.86-2.17-.97-3.35-.03-.29-.02-.59-.02-.88,0-8,0-16,0-24,0-.83,0-1.71.32-2.42.55-1.19,1.46-2.14,2.88-2.33,1.38-.18,2.77-.2,4.13.02,1.43.24,2.36,1.14,2.79,2.51.27.84.45,1.7.45,2.59,0,4.15,0,8.29,0,12.44h.01Z"/><path class="cls-2" d="m237.34,28.78c0-4.09,0-8.17,0-12.26,0-.68.02-1.35.23-2,.52-1.59,1.81-2.72,3.49-2.75,1.06-.02,2.11-.07,3.17.03,1.46.13,2.46.86,3.06,2.18.3.68.48,1.39.52,2.13.05.82.09,1.64.09,2.47,0,7.35,0,14.7,0,22.05,0,.53-.02,1.06-.07,1.58-.17,2.1-1.23,3.34-3.3,3.79-1.48.33-2.97.27-4.45-.09-1.16-.28-1.91-.99-2.3-2.1-.35-1.01-.44-2.06-.44-3.12,0-3.97,0-7.94,0-11.9Z"/><path class="cls-1" d="m107.19,97.73c.55.47.99.85,1.43,1.24.87.76,1.88,1.05,3.03.91.15-.02.29-.04.44-.06.97-.12.93-.23,1.05.81.33,2.81.5,5.62.59,8.44,0,.06.01.12.01.18.06,1.24.01,1.29-1.21,1.29-1.91,0-3.82-.02-5.73.01-.51,0-.81-.15-1.02-.61-.49-1.1-.99-2.19-1.42-3.32-.32-.86-.2-1.67.17-2.47.1-.21.21-.43.35-.61,1.09-1.35,1.58-2.96,1.99-4.6.09-.37.19-.74.32-1.2Z"/><path class="cls-5" d="m242.65.02c.86-.01,1.7.1,2.52.35,1.43.43,2.26,1.4,2.53,2.87.16.89.04,1.76-.28,2.59-.29.75-.86,1.24-1.59,1.56-1.15.51-2.36.68-3.6.66-.88-.01-1.75-.15-2.61-.33-.97-.2-2.07-1.61-2.23-2.81-.08-.61-.08-1.24.02-1.84.18-1.03.67-1.84,1.66-2.31,1.14-.54,2.33-.77,3.58-.74Z"/><path class="cls-5" d="m360.39,8.02c-.63-.12-1.36,0-2.11-.19-1.79-.45-3.13-2.02-2.77-4.55.21-1.49,1.06-2.41,2.49-2.86,1.73-.54,3.47-.57,5.2-.08,2.56.72,3.61,3.91,2.04,6.08-.32.44-.75.73-1.24.96-1.12.52-2.3.66-3.61.64Z"/><path class="cls-1" d="m115.64,109.62c-.19-1.96-.33-3.92-.48-5.88-.11-1.37.17-2.58,1.11-3.7.29.7.46,1.36.32,2.1-.22,1.21-.59,2.4-.43,3.65.02.12,0,.24.03.35.24,1.24.09,2.45-.25,3.65-.1-.06-.2-.12-.31-.17Z"/><path class="cls-1" d="m65.09,74.68c-.08-.48.08-.88.4-1.23.01.46-.05.9-.4,1.23Z"/><path class="cls-1" d="m115.64,109.62c.1.06.2.12.31.17.02.23.05.46-.25.66-.1-.3-.1-.56-.06-.84Z"/><path class="cls-1" d="m103.19,96.4c-.08,0-.17,0-.25,0,0-.21.09-.38.24-.55.12.2.09.38,0,.56Z"/><path class="cls-1" d="m325.98,67.77c-.18.09-.35.09-.53,0,.18-.18.35-.17.53,0Z"/><path class="cls-1" d="m98.56,97.42c-.08,0-.16.02-.24.03,0-.06-.01-.12,0-.17.04-.13.12-.33.25-.26.19.09.14.27-.01.4Z"/><path class="cls-4" d="m306.68,119c.19-.03.35,0,.42.21-.26.17-.35,0-.42-.21Z"/><path class="cls-1" d="m212.37,71.16c.21.17.1.27-.09.34-.07-.14-.17-.29.09-.34Z"/><path class="cls-1" d="m224,73.79c-.08-.26.1-.36.28-.46.06.25,0,.42-.28.46Z"/><path class="cls-1" d="m217.21,93.21c-.18-.26-.02-.36.19-.45.04.2.03.37-.19.45Z"/><path class="cls-1" d="m116.37,86.69c.1-.14,0-.25-.05-.37.13.01.29.02.28.2,0,.12-.13.15-.24.17Z"/><path class="cls-1" d="m209.02,83.34c.21.24.04.3-.16.34-.07-.17-.08-.32.16-.34Z"/><path class="cls-1" d="m210.52,77.75c.05.22.02.41-.25.46-.15-.28.08-.35.25-.46Z"/><path class="cls-1" d="m210.25,78.57c.21.24.04.3-.16.34-.07-.17-.08-.32.16-.34Z"/><path class="cls-1" d="m209.29,82.51c.05.22.02.41-.25.46-.15-.28.08-.35.25-.46Z"/><path class="cls-1" d="m63.34,71.72c0,.13.01.26-.14.31l-.18-.3c.11,0,.22,0,.33-.01Z"/><path class="cls-1" d="m63.34,71.72c-.11,0-.22,0-.33.01-.16-.06-.23-.14-.03-.24.17,0,.32.03.36.23Z"/><path class="cls-1" d="m63.78,74.32c.11-.22.24-.36.4-.04-.13.01-.27.03-.4.04Z"/><path class="cls-1" d="m63.17,74.27c0,.12.01.25.02.37-.3-.11-.17-.24-.02-.37Z"/><path class="cls-1" d="m64.12,75.73c.09.05.18.09.26.14-.09.03-.14.2-.26.1-.04-.04,0-.16,0-.24Z"/><path class="cls-1" d="m212.67,70.47l-.12.14c-.05-.13,0-.16.12-.14Z"/><path class="cls-1" d="m168.15,91.25c-.04.06-.08.12-.13.18,0-.09.04-.15.13-.18Z"/><path class="cls-1" d="m64.84,75.02c-.06-.13.02-.15.12-.15-.04.05-.08.1-.12.15Z"/><path class="cls-1" d="m166.76,93.38c-.05.05-.11.1-.16.15.02-.09.07-.14.16-.15Z"/><path class="cls-1" d="m343.12,70.82s0,.07,0,.1c-.03-.04-.03-.07,0-.1Z"/><path class="cls-3" d="m79.87,57.09c.08-.07.15-.17.28-.07l-.02-.02c.03.12-.03.18-.14.21-.04-.04-.08-.09-.12-.13Z"/><path class="cls-3" d="m80.14,57.03c-.04-.16.1-.2.17-.28,0,.07.03.11.1.11-.04.05-.07.11-.11.16-.06,0-.12,0-.18,0l.02.02Z"/><path class="cls-3" d="m81.86,56.46c.07.07.14.13.21.2-.24.11-.3.04-.21-.2Z"/><path class="cls-1" d="m80.16,71.96c.06.02.12.04.18.06-.06-.02-.12-.04-.18-.06Z"/><path class="cls-1" d="m144.92,103.91c.03.08.06.17.1.25-.08-.06-.11-.15-.1-.25Z"/><path class="cls-1" d="m208.97,109.2c.06-.04.12-.07.17-.11-.02.1-.04.19-.17.11Z"/><path class="cls-4" d="m300.97,114.57s.08.09.13.14c-.11.02-.16-.02-.13-.14Z"/><path class="cls-4" d="m302.91,116.86c.06.01.1.05.12.11-.12.06-.15,0-.12-.11Z"/><path class="cls-1" d="m171,69.55c-.05.05-.1.1-.16.16.05-.05.1-.1.16-.16Z"/><path class="cls-1" d="m121.27,71.65c.33.35.57.74.76,1.18-.03.03-.05.06-.08.09-.39-.27-.68-.64-.89-1.06.07-.07.14-.14.21-.21Z"/><path class="cls-1" d="m122.03,72.83c.1.14.19.28.29.42h0c-.22,0-.32-.14-.38-.33.03-.03.05-.06.08-.09Z"/><path class="cls-1" d="m97.05,69.92c0,.09,0,.18,0,.27-.08.06-.15.04-.16-.05-.01-.11.03-.2.15-.22Z"/><path class="cls-1" d="m121.27,71.65c-.07.07-.14.14-.21.21-.04-.01-.07-.04-.07-.09.08-.06.16-.12.24-.19,0,0,.04.06.04.06Z"/><polygon class="cls-1" points="122.32 73.25 122.33 73.27 122.33 73.24 122.32 73.25"/><path class="cls-1" d="m253.97,82.23c.06-.05.12-.09.17-.14.02.14-.05.17-.17.14Z"/><g><path class="cls-1" d="m82.27,58.21l-.03-.35c.18-.15.37-.31.55-.46.78-.37,1.5-.85,2.33-1.38-.71-.05-1.32.24-2.58,1.13-.03,0-.05.02-.08.03-.29.06-.53.48-.84.21-.29-.26.35-.42.15-.74-.38-.08-.58.33-.91.39-.14-.07-.16-.22-.23-.34-.13-.24-.25-.17-.33.05,0,.07.03.11.1.11-.04.05-.07.11-.11.16-.06,0-.12,0-.18,0,.03.12-.03.18-.14.21-.04-.04-.08-.09-.12-.13-1.49.95-2.94,1.94-4.47,2.82-.72.41-1.15.97-1.36,1.7-.29,1.01-.94,1.74-1.64,2.46-.37.38-.81.56-1.34.53-.35-.02-.71-.04-1.05.03-.51.1-.7.71-.37,1.09.36.42.35.56-.19.7-1.01.28-1.99.63-2.95,1.03-.3.12-.58.26-.82.5-1.04,1.07-1.93,2.26-2.7,3.54.17,0,.32.03.36.23,0,.13.01.26-.14.31-.09.46-.54.76-.56,1.25,0,.09.01.16.12.19.25.05.3-.34.55-.27.3.41-.12.71-.13,1.07,0,.12.01.25.02.37.29.08.44-.13.58-.32.11-.22.24-.36.4-.04-.03.48-.2.96-.06,1.45.09.05.18.09.26.14.34-.18.43-.5.46-.85-.06-.13.02-.15.12-.15.04-.07.08-.13.12-.2-.08-.48.08-.88.4-1.23.05-.56.27-.94.9-1.08.75-.17,1.48-.45,2.22-.7,1.72-.57,3.41-1.25,4.84-2.35.79-.61,1.43-.57,2.26-.29,1.75.59,3.1,1.77,4.45,2.94l.18.06c.27-.2.2-.45.11-.71-.2-.66-.16-.7.5-.62.38.04.76.09,1.14.13.09,0,.17-.02.22-.1.07-.14-.02-.22-.12-.29-.07-.05-.15-.09-.23-.12-1.57-.72-3.07-1.57-4.6-2.38-.18-.1-.38-.18-.53-.31-.36-.31-.3-.74.16-.92.34-.13.5-.39.69-.65.85-1.2,1.69-2.39,2.36-3.71.45-.89,1-1.72,1.57-2.55.24-.35.54-.58.95-.74.93-.35,1.85-.74,2.77-1.12.17-.07.41-.11.36-.47-1.14.25-2.24.66-3.4.76Zm-2.04,12.42s.03.04.06.06c-.02.03-.04.07-.06.1-.02-.02-.05-.04-.05-.05.01-.04.04-.07.06-.1Zm.25-13.32s-.06.03-.1.04c.04,0,.07-.02.1-.04.08-.02.16-.06.22-.1-.07.05-.14.08-.22.1Zm.8.38s-.04-.07-.05-.11c0-.01.03-.03.05-.05.02.04.04.07.05.11,0,.01-.03.03-.05.05Z"/><path class="cls-1" d="m82.52,56.09c-.32.02-.5.17-.66.37.07.07.14.13.21.2.21-.11.44-.21.45-.57Z"/><path class="cls-1" d="m82.87,56.03c.06-.05.08-.14.12-.21l-.04-.04c-.08.02-.18.02-.24.06-.08.06-.22.14-.12.26.11.13.2,0,.27-.07Z"/><path class="cls-1" d="m83.06,55.67s-.1.04-.1.11c0,0,.04.04.04.04.09-.02.19-.06.07-.15Z"/></g><path class="cls-1" d="m80.29,70.69s-.04.07-.06.1c-.02-.02-.05-.04-.05-.05.01-.04.04-.07.06-.1.02.02.03.04.06.06Z"/><path class="cls-1" d="m81.29,57.54s.04.07.05.11c0,.01-.03.03-.05.05-.02-.04-.04-.07-.05-.11,0-.01.03-.03.05-.05Z"/></svg>